# xmcd
#
# Track frame offsets:
#       150
#       20410
#       40736
#       57048
#       77401
#       86017
#       98748
#       119748
#       138646
#       160561
#       171100
#       185803
#       207475
#
# Disc length: 2970 seconds
#
# Revision: 0
# Processed by: cddbd v1.5.1PL2 Copyright (c) Steve Scherf et al.
# Submitted via: WaveLab 4.01
#
DISCID=aa0b980d
DTITLE=Pete Haycock - Bikers' Dozen
DYEAR=2006
DGENRE=
TTITLE0=Cry To Me
TTITLE1=Miracle
TTITLE2=The Heat
TTITLE3=Waiting For Rain
TTITLE4=Klone Shuffle
TTITLE5=Prattilin'
TTITLE6=Collossus
TTITLE7=Talkin' Mutton Jeff Here
TTITLE8=Stolen Wings
TTITLE9=Dominator
TTITLE10=Blue Breakers
TTITLE11=Driver
TTITLE12=Bikers' Dozen
EXTD=
EXTT0=
EXTT1=
EXTT2=
EXTT3=
EXTT4=
EXTT5=
EXTT6=
EXTT7=
EXTT8=
EXTT9=
EXTT10=
EXTT11=
EXTT12=
PLAYORDER=
